<?xml version="1.0" standalone="no"?>
<!DOCTYPE svg PUBLIC "-//W3C//DTD SVG 20010904//EN"
 "http://www.w3.org/TR/2001/REC-SVG-20010904/DTD/svg10.dtd">
<svg version="1.0" xmlns="http://www.w3.org/2000/svg"
 width="500.000000pt" height="500.000000pt" viewBox="0 0 500.000000 500.000000"
 preserveAspectRatio="xMidYMid meet">
<metadata>
Created by potrace 1.14, written by Peter Selinger 2001-2017
</metadata>
<g transform="translate(0.000000,500.000000) scale(0.100000,-0.100000)"
fill="#000000" stroke="none">
<path d="M413 4986 c-194 -47 -362 -221 -402 -414 -8 -37 -11 -652 -11 -2071
0 -1991 0 -2019 20 -2097 43 -169 174 -311 348 -377 l57 -22 2040 -3 c1500 -2
2056 0 2100 8 189 37 361 194 411 377 18 66 19 143 19 2128 l0 2060 -25 65
c-72 183 -227 317 -404 349 -93 17 -4084 14 -4153 -3z m945 -1356 c107 -25
196 -90 237 -174 l26 -53 0 -949 -1 -948 -25 -52 c-31 -64 -89 -118 -164 -153
-50 -23 -68 -26 -171 -26 -108 0 -119 2 -180 31 -84 39 -129 79 -160 141 l-25
48 -3 955 -2 954 25 52 c39 80 132 150 232 173 52 12 159 13 211 1z m1307 -20
c42 -16 77 -40 117 -80 94 -94 88 -25 88 -1080 0 -1037 5 -970 -81 -1064 -65
-71 -146 -108 -253 -114 -141 -8 -251 32 -331 120 -80 89 -76 27 -73 1084 l3
939 22 40 c24 47 95 115 144 141 97 50 255 56 364 14z m1237 -2 c72 -33 133
-89 166 -152 l27 -51 0 -950 0 -950 -27 -50 c-58 -110 -166 -175 -299 -183
-164 -9 -299 56 -359 174 l-25 49 -3 956 -2 956 28 54 c36 69 113 132 194 159
89 29 222 23 300 -12z"/>
</g>
</svg>
