<?xml version="1.0" encoding="UTF-8"?>
<svg width="27pt" height="27pt" version="1.1" viewBox="0 0 700 570" xmlns="http://www.w3.org/2000/svg">
<path d="m327.6 102.39v162.4c0 12.371 10.031 22.398 22.398 22.398 12.371 0 22.398-10.031 22.398-22.398v-162.4c0-12.371-10.031-22.398-22.398-22.398-12.371 0-22.398 10.027-22.398 22.398z"/>
<path d="m445.64 138.19c-10.578-6.4219-24.355-3.0742-30.777 7.5039-6.4297 10.566-3.0703 24.348 7.5 30.777 42.027 25.559 67.121 70.145 67.121 119.27 0 76.906-62.57 139.47-139.47 139.47-76.906 0-139.48-62.57-139.48-139.48 0-49.117 25.09-93.699 67.109-119.27 10.574-6.4219 13.926-20.203 7.5-30.777-6.4219-10.562-20.199-13.926-30.777-7.4922-55.504 33.754-88.633 92.648-88.633 157.54 0 101.61 82.668 184.27 184.27 184.27s184.27-82.664 184.27-184.27c0-64.891-33.137-123.79-88.637-157.55z"/>
</svg>
